<?xml version="1.0" standalone="no"?>
<!DOCTYPE svg PUBLIC "-//W3C//DTD SVG 20010904//EN"
 "http://www.w3.org/TR/2001/REC-SVG-20010904/DTD/svg10.dtd">
<svg version="1.0" xmlns="http://www.w3.org/2000/svg"
 width="512.000000pt" height="512.000000pt" viewBox="0 0 512.000000 512.000000"
 preserveAspectRatio="xMidYMid meet">
<metadata>
Created by potrace 1.14, written by Peter Selinger 2001-2017
</metadata>
<g transform="translate(0.000000,512.000000) scale(0.100000,-0.100000)"
fill="#000000" stroke="none">
<path d="M1149 4986 c-2 -2 -39 -6 -83 -10 -415 -35 -722 -260 -862 -632 -25
-67 -48 -179 -61 -294 -11 -100 -10 -2907 1 -2990 4 -36 10 -74 12 -85 2 -11
7 -38 9 -59 20 -150 137 -369 261 -492 54 -53 169 -139 201 -151 10 -3 29 -14
43 -23 33 -23 129 -58 204 -75 65 -15 86 -19 181 -32 33 -4 710 -8 1505 -8
1426 0 1472 1 1645 30 170 29 380 144 508 278 115 120 214 315 241 472 3 17 8
41 10 55 3 14 9 52 13 85 10 77 11 2895 0 2995 -22 214 -76 371 -177 519 -139
202 -369 346 -620 389 -36 6 -83 15 -105 19 -40 7 -2918 16 -2926 9z"/>
</g>
</svg>
